<?xml version="1.0" standalone="no"?><!DOCTYPE svg PUBLIC "-//W3C//DTD SVG 1.1//EN" "http://www.w3.org/Graphics/SVG/1.1/DTD/svg11.dtd"><svg t="1713073771315" class="icon" viewBox="0 0 1024 1024" version="1.1" xmlns="http://www.w3.org/2000/svg" p-id="1746" xmlns:xlink="http://www.w3.org/1999/xlink" width="200" height="200"><path d="M714.752 359.082667C770.730667 217.770667 666.282667 62.122667 512 62.122667S253.952 217.770667 309.248 359.082667C177.493333 342.016 62.122667 443.733333 62.122667 575.488c0 120.149333 97.621333 217.770667 217.770666 217.770667 64.170667 0 121.514667-27.989333 161.792-71.68 0 64.170667-1.365333 92.16-92.842666 133.12-24.576 10.922667-37.546667 36.864-32.085334 62.805333 5.461333 25.941333 28.672 44.373333 55.296 44.373333h281.258667c26.624 0 49.834667-18.432 55.296-44.373333 5.461333-25.941333-8.192-51.882667-32.085333-62.805333-90.794667-40.277333-92.842667-66.901333-92.842667-133.12 39.594667 44.373333 97.621333 71.68 161.792 71.68 120.149333 0 217.770667-97.621333 217.770667-217.770667-1.365333-131.754667-117.418667-233.472-248.490667-216.405333z" p-id="1747"></path></svg>