<?xml version="1.0" standalone="no"?><!DOCTYPE svg PUBLIC "-//W3C//DTD SVG 1.1//EN" "http://www.w3.org/Graphics/SVG/1.1/DTD/svg11.dtd"><svg t="1713073758635" class="icon" viewBox="0 0 1024 1024" version="1.1" xmlns="http://www.w3.org/2000/svg" p-id="1320" xmlns:xlink="http://www.w3.org/1999/xlink" width="200" height="200"><path d="M540.672 73.728c-16.384-15.701333-41.642667-15.701333-58.026667 0-84.650667 80.554667-326.314667 313.344-364.544 355.669333-34.133333 37.546667-55.978667 86.698667-55.978666 141.312 0 123.562667 96.256 221.866667 217.088 222.549334 64.170667 0 122.197333-27.306667 162.474666-71.68 0 64.170667-1.365333 92.16-92.16 132.437333-24.576 10.922667-38.912 38.229333-32.768 64.170667 5.461333 25.258667 28.672 43.690667 54.613334 43.690666h279.893333c27.306667 0 51.2-19.114667 56.661333-45.738666 4.778667-25.941333-8.192-51.2-32.085333-62.122667-90.794667-40.277333-92.842667-66.901333-92.842667-133.12 40.96 45.056 101.034667 73.728 167.253334 71.68 118.784-2.730667 212.309333-98.986667 212.309333-217.770667 0-56.661333-21.162667-107.861333-55.978667-146.090666-38.912-41.642667-281.258667-274.432-365.909333-354.986667z" p-id="1321"></path></svg>